<svg version="1.1" id="Layer_1" xmlns="http://www.w3.org/2000/svg" x="0" y="0" viewBox="0 0 55 55" xml:space="preserve"><style>.st7{fill:#c74634}</style><path class="st7" d="M14.3 5.8l5.5 2.3c.4.2.4.8 0 1l-6.4 3.1c-.2.1-.3.3-.3.5v31.1c0 .2.1.4.4.5 2.5.8 3.5 2.2 7.4 3.5.4.1.7-.1.7-.5V13.6c0-.2.2-.5.4-.5l20.3-6.3h.4l1.7.5c-4.6-3.7-10.4-6-16.8-6-6 0-11.5 2-16 5.4l2.2-.9h.5zM1.1 27.7c0 6.3 2.2 12 5.8 16.5v-33c-3.6 4.5-5.8 10.3-5.8 16.5z"/><path class="st7" d="M54.1 27.7c0-6.7-2.5-12.8-6.6-17.4L28 17.4c-.2.1-.4.3-.4.5v36.3c14.7 0 26.5-11.9 26.5-26.5zm-10.9 3.1c0 .9-.8 1.7-1.7 1.7l-10.1 2.2c-.5 0-.9-.4-.9-.9v-3.9c0-.3.3-.6.6-.6l3.5-.7c1.4 0 2.5-1.1 2.5-2.5v-3.5c0-.3.3-.6.6-.6l4.6-1.8c.5 0 .9.4.9.9v9.7z"/></svg>